<svg width="120" height="120" viewBox="0 0 120 120" xmlns="http://www.w3.org/2000/svg" role="img" aria-label="Bookone stack tile">
  <rect x="6" y="6" width="108" height="108" rx="30" fill="#1C1917"></rect>
  <g transform="translate(60 64) scale(0.42) translate(-100 -100)">
    <polygon points="32,112 68,148 68,164 32,128" fill="#DCD3BD"></polygon>
    <polygon points="68,148 132,148 132,164 68,164" fill="#ECE4D2"></polygon>
    <polygon points="132,148 168,112 168,128 132,164" fill="#C9BFA6"></polygon>
    <polygon points="32,96 68,132 68,148 32,112" fill="#3A463E"></polygon>
    <polygon points="68,132 132,132 132,148 68,148" fill="#4A564C"></polygon>
    <polygon points="132,132 168,96 168,112 132,148" fill="#2C352F"></polygon>
    <polygon points="32,80 68,116 68,132 32,96" fill="#BBD133"></polygon>
    <polygon points="68,116 132,116 132,132 68,132" fill="#CFE53C"></polygon>
    <polygon points="132,116 168,80 168,96 132,132" fill="#A7BC2A"></polygon>
    <polygon points="68,44 132,44 168,80 132,116 68,116 32,80" fill="#E8FF47"></polygon>
    <polygon points="68,44 132,44 150,62 86,62" fill="#F2FF8C" opacity="0.55"></polygon>
  </g>
</svg>