<svg width="588" height="570" viewBox="0 0 588 570" fill="none" xmlns="http://www.w3.org/2000/svg">
<path fill-rule="evenodd" clip-rule="evenodd" d="M316.756 -18.5515C362.691 -8.93158 348.157 68.6427 365.225 112.361C371.695 128.933 368.954 161.041 386.741 160.705C452.749 159.458 515.384 82.2546 576.015 108.379C614.037 124.763 550.373 189.384 520.989 218.55C493.747 245.59 413.062 227.882 417.168 266.045C423.922 328.824 535.929 344.101 541.264 407.016C544.441 444.477 460.865 398.964 430.297 420.85C396.663 444.931 403.951 503.493 371.208 528.771C340.212 552.7 272.929 590.224 257.547 554.213C224.466 476.767 303.217 383.821 275.348 304.351C264.277 272.782 215.474 336.511 182.124 339.144C123.371 343.782 45.33 370.576 7.35275 325.508C-20.9769 291.888 39.0061 236.029 77.7935 215.332C126.717 189.226 236.804 255.478 242.046 200.274C249.93 117.242 85.1951 80.3326 98.4306 -2.01584C108.345 -63.6992 197.43 94.9853 259.727 90.267C300.913 87.1476 276.329 -27.0178 316.756 -18.5515Z" fill="#A993DD"/>
</svg>
