<svg width="588" height="330" viewBox="0 0 588 330" fill="none" xmlns="http://www.w3.org/2000/svg">
<path fill-rule="evenodd" clip-rule="evenodd" d="M226.192 91.6386C253.254 134.283 204.248 244.82 254.439 239.188C341.619 229.404 362.423 70.1216 450.076 66.5143C510.61 64.023 349.936 183.298 383.275 233.885C422.347 293.173 556.627 215.6 589.727 278.417C615.47 327.272 500.668 341.71 459.464 378.475C437.45 398.118 432.144 445.163 402.641 445.352C352.296 445.675 317.598 370.792 268.047 379.703C237.342 385.224 285.605 461.791 256.028 471.716C228.64 480.906 235.189 413.192 209.908 399.212C194.194 390.522 177.043 412.534 160.182 418.712C112.337 436.244 65.9998 485.234 17.4587 469.731C-13.7681 459.758 4.35736 403.354 14.749 372.264C24.9232 341.825 49.5709 317.875 74.8326 298.078C94.4391 282.713 128.083 290.391 143.839 271.097C155.177 257.214 142.661 235.668 140.311 217.898C131.079 148.06 69.7899 68.9012 109.409 10.6537C136.281 -28.852 200.591 51.2978 226.192 91.6386Z" fill="black"/>
</svg>
