<?xml version="1.0" encoding="utf-8" ?>
<svg baseProfile="full" height="64" version="1.1" viewBox="0 0 1024 1024" width="64" xmlns="http://www.w3.org/2000/svg" xmlns:ev="http://www.w3.org/2001/xml-events" xmlns:xlink="http://www.w3.org/1999/xlink"><defs /><path d="M 626 214 L 625 215 L 624 215 L 623 216 L 622 216 L 621 217 L 620 217 L 619 218 L 618 218 L 617 219 L 616 219 L 615 220 L 614 220 L 613 221 L 612 221 L 611 222 L 610 222 L 609 223 L 608 223 L 607 224 L 606 224 L 605 225 L 604 225 L 603 226 L 602 226 L 601 227 L 600 227 L 599 228 L 598 228 L 597 229 L 596 229 L 595 230 L 594 230 L 593 231 L 592 231 L 591 232 L 590 232 L 589 233 L 588 233 L 587 234 L 586 234 L 585 235 L 583 235 L 582 236 L 581 236 L 580 237 L 579 237 L 578 238 L 577 238 L 576 239 L 575 239 L 574 240 L 573 240 L 572 241 L 571 241 L 570 242 L 569 242 L 568 243 L 567 243 L 566 244 L 565 244 L 564 245 L 563 245 L 562 246 L 561 246 L 560 247 L 559 247 L 558 248 L 557 248 L 556 249 L 555 249 L 554 250 L 553 250 L 552 251 L 551 251 L 550 252 L 549 252 L 548 253 L 547 253 L 546 254 L 545 254 L 544 255 L 543 255 L 542 256 L 541 256 L 540 257 L 539 257 L 538 258 L 537 258 L 536 259 L 535 259 L 534 260 L 533 260 L 532 261 L 531 261 L 530 262 L 529 262 L 528 263 L 527 263 L 526 264 L 525 264 L 524 265 L 523 265 L 522 266 L 521 266 L 520 267 L 519 267 L 518 268 L 517 268 L 516 269 L 515 269 L 514 270 L 513 270 L 512 271 L 511 271 L 510 272 L 509 272 L 508 273 L 507 273 L 506 274 L 505 274 L 504 275 L 503 275 L 501 277 L 500 277 L 499 278 L 498 278 L 495 281 L 494 281 L 485 290 L 485 291 L 482 294 L 482 295 L 480 297 L 480 298 L 479 299 L 479 300 L 477 302 L 477 303 L 476 304 L 476 306 L 475 307 L 475 308 L 474 309 L 474 311 L 473 312 L 473 314 L 472 315 L 472 319 L 471 320 L 471 325 L 469 327 L 468 326 L 467 326 L 466 325 L 465 325 L 464 324 L 463 324 L 462 323 L 461 323 L 460 322 L 459 322 L 457 320 L 456 320 L 455 319 L 454 319 L 453 318 L 452 318 L 451 317 L 450 317 L 449 316 L 448 316 L 447 315 L 446 315 L 444 313 L 443 313 L 442 312 L 441 312 L 440 311 L 439 311 L 438 310 L 437 310 L 436 309 L 435 309 L 434 308 L 433 308 L 431 306 L 430 306 L 429 305 L 428 305 L 427 304 L 426 304 L 425 303 L 424 303 L 423 302 L 422 302 L 421 301 L 420 301 L 418 299 L 417 299 L 416 298 L 415 298 L 414 297 L 413 297 L 412 296 L 411 296 L 410 295 L 409 295 L 408 294 L 407 294 L 406 293 L 405 293 L 404 292 L 403 292 L 402 291 L 401 291 L 399 289 L 398 289 L 397 288 L 396 288 L 395 287 L 394 287 L 393 286 L 392 286 L 391 285 L 390 285 L 388 283 L 387 283 L 386 282 L 385 282 L 384 281 L 383 281 L 382 280 L 379 280 L 379 461 L 380 462 L 380 467 L 381 468 L 381 471 L 382 472 L 382 473 L 383 474 L 383 475 L 384 476 L 384 477 L 385 478 L 385 479 L 386 480 L 386 481 L 390 485 L 390 486 L 392 488 L 393 488 L 397 492 L 398 492 L 399 493 L 400 493 L 402 495 L 403 495 L 405 497 L 406 497 L 407 498 L 408 498 L 409 499 L 410 499 L 411 500 L 412 500 L 413 501 L 414 501 L 416 503 L 417 503 L 418 504 L 419 504 L 420 505 L 421 505 L 422 506 L 423 506 L 424 507 L 425 507 L 426 508 L 427 508 L 428 509 L 429 509 L 430 510 L 431 510 L 433 512 L 434 512 L 435 513 L 436 513 L 437 514 L 438 514 L 439 515 L 440 515 L 441 516 L 442 516 L 443 517 L 444 517 L 446 519 L 447 519 L 448 520 L 449 520 L 450 521 L 451 521 L 452 522 L 453 522 L 454 523 L 455 523 L 456 524 L 457 524 L 459 526 L 460 526 L 461 527 L 462 527 L 463 528 L 464 528 L 465 529 L 466 529 L 468 531 L 469 531 L 470 532 L 471 532 L 472 533 L 473 533 L 474 534 L 475 534 L 476 535 L 477 535 L 479 537 L 480 537 L 481 538 L 482 538 L 483 539 L 484 539 L 485 540 L 486 540 L 487 541 L 488 541 L 490 543 L 491 543 L 492 544 L 493 544 L 494 545 L 495 545 L 496 546 L 497 546 L 498 547 L 499 547 L 500 548 L 501 548 L 502 549 L 503 549 L 505 551 L 506 551 L 507 552 L 508 552 L 509 553 L 510 553 L 511 554 L 512 554 L 513 555 L 514 555 L 515 556 L 516 556 L 518 558 L 519 558 L 520 559 L 521 559 L 522 560 L 523 560 L 524 561 L 525 561 L 526 562 L 527 562 L 528 563 L 529 563 L 531 565 L 532 565 L 533 566 L 534 566 L 535 567 L 536 567 L 537 568 L 538 568 L 539 569 L 540 569 L 541 570 L 542 570 L 543 571 L 544 571 L 546 573 L 547 573 L 548 574 L 549 574 L 550 575 L 551 575 L 552 576 L 554 576 L 554 497 L 556 495 L 557 495 L 558 494 L 559 494 L 560 493 L 561 493 L 562 492 L 563 492 L 564 491 L 565 491 L 566 490 L 567 490 L 568 489 L 569 489 L 570 488 L 571 488 L 572 487 L 573 487 L 574 486 L 575 486 L 576 485 L 577 485 L 578 484 L 579 484 L 580 483 L 582 483 L 584 481 L 586 481 L 587 480 L 588 480 L 589 479 L 590 479 L 591 478 L 592 478 L 594 476 L 595 476 L 596 475 L 597 475 L 599 473 L 600 473 L 603 470 L 604 470 L 615 459 L 615 458 L 617 456 L 617 455 L 619 453 L 619 452 L 620 451 L 620 450 L 621 449 L 621 448 L 622 447 L 622 446 L 623 445 L 623 444 L 624 443 L 624 441 L 625 440 L 625 438 L 626 437 L 626 434 L 627 433 L 627 429 L 628 428 L 628 389 L 629 388 L 629 214 Z" fill="black" stroke="none" /><path d="M 398 312 L 399 311 L 401 311 L 402 312 L 403 312 L 404 313 L 405 313 L 406 314 L 407 314 L 409 316 L 410 316 L 411 317 L 412 317 L 413 318 L 414 318 L 415 319 L 416 319 L 417 320 L 418 320 L 419 321 L 420 321 L 421 322 L 422 322 L 423 323 L 424 323 L 426 325 L 427 325 L 428 326 L 429 326 L 430 327 L 431 327 L 432 328 L 433 328 L 434 329 L 435 329 L 436 330 L 437 330 L 438 331 L 439 331 L 441 333 L 442 333 L 443 334 L 444 334 L 445 335 L 446 335 L 447 336 L 448 336 L 449 337 L 450 337 L 451 338 L 452 338 L 454 340 L 455 340 L 456 341 L 457 341 L 458 342 L 459 342 L 460 343 L 461 343 L 462 344 L 463 344 L 464 345 L 465 345 L 466 346 L 467 346 L 469 348 L 470 348 L 471 349 L 472 349 L 473 350 L 474 350 L 475 351 L 476 351 L 477 352 L 478 352 L 479 353 L 480 353 L 481 354 L 482 354 L 484 356 L 485 356 L 486 357 L 487 357 L 488 358 L 489 358 L 490 359 L 491 359 L 492 360 L 493 360 L 494 361 L 495 361 L 497 363 L 498 363 L 499 364 L 500 364 L 501 365 L 502 365 L 503 366 L 504 366 L 506 368 L 507 368 L 509 370 L 510 370 L 512 372 L 513 372 L 518 377 L 519 377 L 521 379 L 521 380 L 525 384 L 525 385 L 527 387 L 527 388 L 529 390 L 529 391 L 530 392 L 530 393 L 531 394 L 531 396 L 532 397 L 532 398 L 533 399 L 533 402 L 534 403 L 534 406 L 535 407 L 535 544 L 534 545 L 533 545 L 531 543 L 530 543 L 529 542 L 528 542 L 527 541 L 526 541 L 525 540 L 524 540 L 523 539 L 522 539 L 521 538 L 520 538 L 518 536 L 517 536 L 516 535 L 515 535 L 514 534 L 513 534 L 512 533 L 511 533 L 510 532 L 509 532 L 508 531 L 507 531 L 505 529 L 504 529 L 503 528 L 502 528 L 501 527 L 500 527 L 499 526 L 498 526 L 497 525 L 496 525 L 494 523 L 493 523 L 492 522 L 491 522 L 490 521 L 489 521 L 488 520 L 487 520 L 486 519 L 485 519 L 484 518 L 483 518 L 482 517 L 481 517 L 480 516 L 479 516 L 478 515 L 477 515 L 476 514 L 475 514 L 473 512 L 472 512 L 471 511 L 470 511 L 469 510 L 468 510 L 467 509 L 466 509 L 465 508 L 464 508 L 463 507 L 462 507 L 461 506 L 460 506 L 459 505 L 458 505 L 456 503 L 455 503 L 454 502 L 453 502 L 452 501 L 451 501 L 450 500 L 449 500 L 447 498 L 446 498 L 445 497 L 444 497 L 443 496 L 442 496 L 441 495 L 440 495 L 439 494 L 438 494 L 436 492 L 435 492 L 434 491 L 433 491 L 432 490 L 431 490 L 430 489 L 429 489 L 427 487 L 426 487 L 425 486 L 424 486 L 423 485 L 422 485 L 421 484 L 420 484 L 419 483 L 418 483 L 416 481 L 415 481 L 414 480 L 413 480 L 412 479 L 411 479 L 408 476 L 407 476 L 404 473 L 404 472 L 402 470 L 402 469 L 401 468 L 401 467 L 400 466 L 400 465 L 399 464 L 399 461 L 398 460 Z" fill="rgb(250,248,240)" stroke="none" /><path d="M 605 246 L 606 245 L 609 245 L 610 246 L 610 423 L 609 424 L 609 429 L 608 430 L 608 433 L 607 434 L 607 436 L 606 437 L 606 438 L 605 439 L 605 440 L 604 441 L 604 442 L 603 443 L 603 444 L 601 446 L 601 447 L 597 451 L 597 452 L 594 455 L 593 455 L 590 458 L 589 458 L 587 460 L 586 460 L 585 461 L 584 461 L 583 462 L 582 462 L 581 463 L 579 463 L 578 464 L 577 464 L 576 465 L 575 465 L 574 466 L 573 466 L 572 467 L 571 467 L 570 468 L 569 468 L 568 469 L 567 469 L 566 470 L 565 470 L 564 471 L 563 471 L 562 472 L 561 472 L 560 473 L 559 473 L 558 474 L 557 474 L 556 475 L 554 473 L 554 407 L 553 406 L 553 402 L 552 401 L 552 398 L 551 397 L 551 395 L 550 394 L 550 392 L 549 391 L 549 389 L 548 388 L 548 387 L 547 386 L 547 385 L 546 384 L 546 383 L 544 381 L 544 380 L 543 379 L 543 378 L 541 376 L 541 375 L 538 372 L 538 371 L 529 362 L 528 362 L 524 358 L 523 358 L 521 356 L 520 356 L 518 354 L 517 354 L 515 352 L 514 352 L 512 350 L 511 350 L 510 349 L 509 349 L 507 347 L 506 347 L 505 346 L 504 346 L 503 345 L 502 345 L 500 343 L 499 343 L 498 342 L 497 342 L 496 341 L 495 341 L 494 340 L 493 340 L 492 339 L 491 339 L 488 336 L 488 331 L 489 330 L 489 324 L 490 323 L 490 320 L 491 319 L 491 317 L 492 316 L 492 315 L 493 314 L 493 313 L 494 312 L 494 311 L 495 310 L 495 309 L 496 308 L 496 307 L 499 304 L 499 303 L 506 296 L 507 296 L 510 293 L 511 293 L 513 291 L 514 291 L 515 290 L 516 290 L 517 289 L 518 289 L 519 288 L 520 288 L 521 287 L 522 287 L 523 286 L 524 286 L 525 285 L 526 285 L 527 284 L 528 284 L 529 283 L 530 283 L 531 282 L 532 282 L 533 281 L 534 281 L 535 280 L 536 280 L 537 279 L 538 279 L 539 278 L 540 278 L 541 277 L 542 277 L 543 276 L 544 276 L 545 275 L 547 275 L 548 274 L 549 274 L 550 273 L 551 273 L 552 272 L 553 272 L 554 271 L 555 271 L 556 270 L 557 270 L 558 269 L 559 269 L 560 268 L 561 268 L 562 267 L 563 267 L 564 266 L 565 266 L 566 265 L 567 265 L 568 264 L 569 264 L 570 263 L 571 263 L 572 262 L 573 262 L 574 261 L 575 261 L 576 260 L 577 260 L 578 259 L 579 259 L 580 258 L 581 258 L 582 257 L 583 257 L 584 256 L 585 256 L 586 255 L 587 255 L 588 254 L 589 254 L 590 253 L 591 253 L 592 252 L 593 252 L 594 251 L 595 251 L 596 250 L 597 250 L 598 249 L 599 249 L 600 248 L 601 248 L 602 247 L 603 247 L 604 246 Z" fill="#6b46c1" stroke="none" /></svg>