<?xml version="1.0" encoding="utf-8" standalone="yes"?>
<!DOCTYPE svg PUBLIC "-//W3C//DTD SVG 1.1//EN" "http://www.w3.org/Graphics/SVG/1.1/DTD/svg11.dtd">
<svg width="720" height="828" viewBox="0 0 720 828" style="fill:none;stroke:none;fill-rule:evenodd;clip-rule:evenodd;stroke-linecap:round;stroke-linejoin:round;stroke-miterlimit:1.5;" version="1.1" xmlns="http://www.w3.org/2000/svg" xmlns:xlink="http://www.w3.org/1999/xlink"><style class="text-font-style fontImports" data-font-family="Roboto">@import url(https://fonts.googleapis.com/css2?family=Roboto:wght@400;700&amp;amp;display=block);</style><g id="items" style="isolation: isolate"><g id="blend" style="mix-blend-mode: normal"><g id="g-root-cp_4_g-4_7r8j7136shdu-fill" data-item-order="-491894" transform="translate(26.000015258789062, 325.99755859375)"><g id="cp_4_g-4_7r8j7136shdu-fill" stroke="none" fill="#a25fc1"><g><path d="M 143.44148 13.064598C 201.39628 27.114798 236.98808 85.486498 222.93788 143.441398C 208.88758 201.396198 150.51598 236.987998 92.56108 222.937798C 34.60618 208.887498 -0.98552 150.515898 13.06468 92.560998C 27.11488 34.606098 85.48658 -0.985602 143.44148 13.064598Z"></path></g></g></g><g id="g-root-sy_4_ar-4_1d2e8z7136sgek-fill" data-item-order="-491885" transform="translate(167.46408081054688, 251.391845703125)"></g><g id="g-root-cp_3_g-3_18mkqur136sh6t-fill" data-item-order="-491884" transform="translate(241.99969482421875, 542)"><g id="cp_3_g-3_18mkqur136sh6t-fill" stroke="none" fill="#b95ce3"><g><path d="M 222.9379 143.4415C 208.8876 201.3963 150.516 236.9881 92.5611 222.9379C 34.6062 208.8876 -0.9855 150.516 13.0647 92.5611C 27.1149 34.6062 85.4866 -0.9855 143.4415 13.0647C 201.3963 27.1149 236.9881 85.4866 222.9379 143.4415Z"></path></g></g></g><g id="g-root-sy_3_ar-3_vbqpkj136sflz-fill" data-item-order="-491875" transform="translate(167.2171630859375, 548.999755859375)"></g><g id="g-root-cp_2_g-2_qvx7g3136sge8-fill" data-item-order="-491874" transform="translate(458, 325.99755859375)"><g id="cp_2_g-2_qvx7g3136sge8-fill" stroke="none" fill="#cb68f9"><g><path d="M 143.441495 13.064593C 201.396295 27.114793 236.988095 85.486493 222.937895 143.441393C 208.887595 201.396193 150.515995 236.987993 92.561095 222.937793C 34.606195 208.887493 -0.985505 150.515893 13.064695 92.560993C 27.114895 34.606093 85.486595 -0.985607 143.441495 13.064593Z"></path></g></g></g><g id="g-root-sy_2_ar-2_dkgp2r136shz6-fill" data-item-order="-491865" transform="translate(465.0001220703125, 549.000244140625)"></g><g id="g-root-cp_1_g-1_9mnsj136sgeb-fill" data-item-order="-491864" transform="translate(242, 110)"><g id="cp_1_g-1_9mnsj136sgeb-fill" stroke="none" fill="#df99ff"><g><path d="M 222.9379 143.4415C 208.8876 201.3963 150.516 236.9881 92.5611 222.9379C 34.6062 208.8876 -0.9855 150.516 13.0647 92.5611C 27.1149 34.6062 85.4866 -0.9855 143.4415 13.0647C 201.3963 27.1149 236.9881 85.4866 222.9379 143.4415Z"></path></g></g></g><g id="g-root-sy_1_ar-1_1d3n75f136sikt-fill" data-item-order="-491855" transform="translate(465.5001220703125, 251.4637451171875)"></g><g id="g-root-tx_designde_8cu0j13gnua6-fill" data-item-order="0" transform="translate(266, 201)"><g id="tx_designde_8cu0j13gnua6-fill" stroke="none" fill="#2c2c2c"><g><text style="font: bold 20px Roboto, sans-serif; white-space: pre;" font-weight="bold" font-size="20px" font-family="Roboto, sans-serif"><tspan x="15.3" y="34" dominant-baseline="ideographic">Design &amp; Develop</tspan></text></g></g></g><g id="g-root-ic_idea_1um6kfn136twy7-fill" data-item-order="0" transform="translate(518, 206)"></g><g id="g-root-tx_crafttai_vbptyr13gnvnz-fill" data-item-order="0" transform="translate(272, 237)"><g id="tx_crafttai_vbptyr13gnvnz-fill" stroke="none" fill="#2c2c2c"><g><text style="font: 15px Roboto, sans-serif; white-space: pre;" font-size="15px" font-family="Roboto, sans-serif"><tspan x="12.9" y="31" dominant-baseline="ideographic">Craft tailored websites</tspan></text></g></g></g><g id="g-root-ic_arch_vagpgz13gnthr-fill" data-item-order="0" transform="translate(110, 206)"></g><g id="g-root-tx_1_8nw313gp7uw-fill" data-item-order="0" transform="translate(332, 152.9959716796875)"><g id="tx_1_8nw313gp7uw-fill" stroke="none" fill="#2c2c2c"><g><text style="font: bold 20px Roboto, sans-serif; white-space: pre;" font-weight="bold" font-size="20px" font-family="Roboto, sans-serif"><tspan x="16.26" y="34" dominant-baseline="ideographic">1</tspan></text></g></g></g><g id="g-root-tx_4_1lw4ycz13gpatn-fill" data-item-order="0" transform="translate(116, 350.99609375)"><g id="tx_4_1lw4ycz13gpatn-fill" stroke="none" fill="#2c2c2c"><g><text style="font: bold 20px Roboto, sans-serif; white-space: pre;" font-weight="bold" font-size="20px" font-family="Roboto, sans-serif"><tspan x="16.26" y="34" dominant-baseline="ideographic">4</tspan></text></g></g></g><g id="g-root-tx_2_1q6ynsj13gpamj-fill" data-item-order="0" transform="translate(548, 356.99609375)"><g id="tx_2_1q6ynsj13gpamj-fill" stroke="none" fill="#2c2c2c"><g><text style="font: bold 20px Roboto, sans-serif; white-space: pre;" font-weight="bold" font-size="20px" font-family="Roboto, sans-serif"><tspan x="16.26" y="34" dominant-baseline="ideographic">2</tspan></text></g></g></g><g id="g-root-tx_maintain_dg2hv713gp8un-fill" data-item-order="0" transform="translate(80, 399)"><g id="tx_maintain_dg2hv713gp8un-fill" stroke="none" fill="#2c2c2c"><g><text style="font: bold 20px Roboto, sans-serif; white-space: pre;" font-weight="bold" font-size="20px" font-family="Roboto, sans-serif"><tspan x="13.09" y="34" dominant-baseline="ideographic">Maintain &amp; </tspan><tspan x="25.56" y="58" dominant-baseline="ideographic">Support</tspan></text></g></g></g><g id="g-root-tx_optimize_18efp4j13gpatl-fill" data-item-order="0" transform="translate(500, 405)"><g id="tx_optimize_18efp4j13gpatl-fill" stroke="none" fill="#2c2c2c"><g><text style="font: bold 20px Roboto, sans-serif; white-space: pre;" font-weight="bold" font-size="20px" font-family="Roboto, sans-serif"><tspan x="35.72" y="34" dominant-baseline="ideographic">Optimize </tspan><tspan x="17.34" y="58" dominant-baseline="ideographic">Performance</tspan></text></g></g></g><g id="g-root-tx_ensureon_1qapib713gp8n4-fill" data-item-order="0" transform="translate(74, 459)"><g id="tx_ensureon_1qapib713gp8n4-fill" stroke="none" fill="#2c2c2c"><g><text style="font: 15px Roboto, sans-serif; white-space: pre;" font-size="15px" font-family="Roboto, sans-serif"><tspan x="16.33" y="28" dominant-baseline="ideographic">Ensure ongoing </tspan><tspan x="26.89" y="46" dominant-baseline="ideographic">functionality</tspan></text></g></g></g><g id="g-root-tx_enhances_hs55gz13gpatm-fill" data-item-order="0" transform="translate(482, 465)"><g id="tx_enhances_hs55gz13gpatm-fill" stroke="none" fill="#2c2c2c"><g><text style="font: 15px Roboto, sans-serif; white-space: pre;" font-size="15px" font-family="Roboto, sans-serif"><tspan x="13.16" y="31" dominant-baseline="ideographic">Enhance speed and SEO</tspan></text></g></g></g><g id="g-root-tx_bookones_v302cz136twcm-fill" data-item-order="0" transform="translate(206, 38)"><g id="tx_bookones_v302cz136twcm-fill" stroke="none" fill="#2c2c2c"><g><text style="font: bold 25px Roboto, sans-serif; white-space: pre;" font-weight="bold" font-size="25px" font-family="Roboto, sans-serif"><tspan x="15.83" y="43" dominant-baseline="ideographic">BookOne's Service Cycle</tspan></text></g></g></g><g id="g-root-tx_streamli_4j6jg313gp891-fill" data-item-order="0" transform="translate(278, 675)"><g id="tx_streamli_4j6jg313gp891-fill" stroke="none" fill="#2c2c2c"><g><text style="font: 15px Roboto, sans-serif; white-space: pre;" font-size="15px" font-family="Roboto, sans-serif"><tspan x="12.59" y="28" dominant-baseline="ideographic">Streamline business </tspan><tspan x="45.68" y="46" dominant-baseline="ideographic">processes</tspan></text></g></g></g><g id="g-root-tx_3_142d1ir13gp8um-fill" data-item-order="0" transform="translate(332, 566.99609375)"><g id="tx_3_142d1ir13gp8um-fill" stroke="none" fill="#2c2c2c"><g><text style="font: bold 20px Roboto, sans-serif; white-space: pre;" font-weight="bold" font-size="20px" font-family="Roboto, sans-serif"><tspan x="16.26" y="34" dominant-baseline="ideographic">3</tspan></text></g></g></g><g id="g-root-ic_api_zs5q0j13g9s78-fill" data-item-order="0" transform="translate(110, 590)"></g><g id="g-root-ic_1_zknxtf13gqo0a-fill" data-item-order="0" transform="translate(518, 590)"></g><g id="g-root-tx_implemen_18gb4dv13gp9tw-fill" data-item-order="0" transform="translate(284, 615)"><g id="tx_implemen_18gb4dv13gp9tw-fill" stroke="none" fill="#2c2c2c"><g><text style="font: bold 20px Roboto, sans-serif; white-space: pre;" font-weight="bold" font-size="20px" font-family="Roboto, sans-serif"><tspan x="13.06" y="34" dominant-baseline="ideographic">Implement AI </tspan><tspan x="21.05" y="58" dominant-baseline="ideographic">Automation</tspan></text></g></g></g><g id="g-root-cp_4_g-4_7r8j7136shdu-stroke" data-item-order="-491894" transform="translate(26.000015258789062, 325.99755859375)"><g id="cp_4_g-4_7r8j7136shdu-stroke" fill="none" stroke-linecap="round" stroke-linejoin="round" stroke-miterlimit="4" stroke="#2c2c2c" stroke-width="2"><g><path d="M 143.44148 13.064598C 201.39628 27.114798 236.98808 85.486498 222.93788 143.441398C 208.88758 201.396198 150.51598 236.987998 92.56108 222.937798C 34.60618 208.887498 -0.98552 150.515898 13.06468 92.560998C 27.11488 34.606098 85.48658 -0.985602 143.44148 13.064598Z"></path></g></g></g><g id="g-root-sy_4_ar-4_1d2e8z7136sgek-stroke" data-item-order="-491885" transform="translate(167.46408081054688, 251.391845703125)"><g id="sy_4_ar-4_1d2e8z7136sgek-stroke" fill="none" stroke-linecap="round" stroke-linejoin="round" stroke-miterlimit="4" stroke="#b95ce3" stroke-width="2"><g><path d="M 9.99649 77.10834C 26.96649 50.27834 49.50649 27.85834 75.61649 11.04834"></path><path d="M 74.19649 19.84834L 75.99649 10.84834L 66.99649 9.04834" stroke-dasharray="none"></path></g></g></g><g id="g-root-cp_3_g-3_18mkqur136sh6t-stroke" data-item-order="-491884" transform="translate(241.99969482421875, 542)"><g id="cp_3_g-3_18mkqur136sh6t-stroke" fill="none" stroke-linecap="round" stroke-linejoin="round" stroke-miterlimit="4" stroke="#2c2c2c" stroke-width="2"><g><path d="M 222.9379 143.4415C 208.8876 201.3963 150.516 236.9881 92.5611 222.9379C 34.6062 208.8876 -0.9855 150.516 13.0647 92.5611C 27.1149 34.6062 85.4866 -0.9855 143.4415 13.0647C 201.3963 27.1149 236.9881 85.4866 222.9379 143.4415Z"></path></g></g></g><g id="g-root-sy_3_ar-3_vbqpkj136sflz-stroke" data-item-order="-491875" transform="translate(167.2171630859375, 548.999755859375)"><g id="sy_3_ar-3_vbqpkj136sflz-stroke" fill="none" stroke-linecap="round" stroke-linejoin="round" stroke-miterlimit="4" stroke="#b95ce3" stroke-width="2"><g><path d="M 77.282734 77.539902C 50.362734 60.509902 27.882734 37.879902 11.052734 11.649902"></path><path d="M 19.852734 13.049902L 10.852734 11.249902L 9.052734 20.249902" stroke-dasharray="none"></path></g></g></g><g id="g-root-cp_2_g-2_qvx7g3136sge8-stroke" data-item-order="-491874" transform="translate(458, 325.99755859375)"><g id="cp_2_g-2_qvx7g3136sge8-stroke" fill="none" stroke-linecap="round" stroke-linejoin="round" stroke-miterlimit="4" stroke="#2c2c2c" stroke-width="2"><g><path d="M 143.441495 13.064593C 201.396295 27.114793 236.988095 85.486493 222.937895 143.441393C 208.887595 201.396193 150.515995 236.987993 92.561095 222.937793C 34.606195 208.887493 -0.985505 150.515893 13.064695 92.560993C 27.114895 34.606093 85.486595 -0.985607 143.441495 13.064593Z"></path></g></g></g><g id="g-root-sy_2_ar-2_dkgp2r136shz6-stroke" data-item-order="-491865" transform="translate(465.0001220703125, 549.000244140625)"><g id="sy_2_ar-2_dkgp2r136shz6-stroke" fill="none" stroke-linecap="round" stroke-linejoin="round" stroke-miterlimit="4" stroke="#b95ce3" stroke-width="2"><g><path d="M 77.849973 9.999756C 60.789973 37.139756 38.049973 59.799756 11.659973 76.729756"></path><path d="M 13.059973 67.899756L 11.259973 76.999756L 20.259973 78.799756" stroke-dasharray="none"></path></g></g></g><g id="g-root-cp_1_g-1_9mnsj136sgeb-stroke" data-item-order="-491864" transform="translate(242, 110)"><g id="cp_1_g-1_9mnsj136sgeb-stroke" fill="none" stroke-linecap="round" stroke-linejoin="round" stroke-miterlimit="4" stroke="#2c2c2c" stroke-width="2"><g><path d="M 222.9379 143.4415C 208.8876 201.3963 150.516 236.9881 92.5611 222.9379C 34.6062 208.8876 -0.9855 150.516 13.0647 92.5611C 27.1149 34.6062 85.4866 -0.9855 143.4415 13.0647C 201.3963 27.1149 236.9881 85.4866 222.9379 143.4415Z"></path></g></g></g><g id="g-root-sy_1_ar-1_1d3n75f136sikt-stroke" data-item-order="-491855" transform="translate(465.5001220703125, 251.4637451171875)"><g id="sy_1_ar-1_1d3n75f136sikt-stroke" fill="none" stroke-linecap="round" stroke-linejoin="round" stroke-miterlimit="4" stroke="#b95ce3" stroke-width="2"><g><path d="M 10 9.99646C 36.92 27.02646 59.4 49.65646 76.23 75.88646"></path><path d="M 67.4 74.49646L 76.4 76.29646L 78.2 67.29646" stroke-dasharray="none"></path></g></g></g><g id="g-root-tx_designde_8cu0j13gnua6-stroke" data-item-order="0" transform="translate(266, 201)"></g><g id="g-root-ic_idea_1um6kfn136twy7-stroke" data-item-order="0" transform="translate(518, 206)"><g id="ic_idea_1um6kfn136twy7-stroke" fill="none" stroke-linecap="round" stroke-linejoin="round" stroke-miterlimit="4" stroke="#2c2c2c" stroke-width="2"><g><path d="M 11.5 23.5L 71.5 23.5M 19.75 16.75C 19.335787 16.75 19 17.085787 19 17.5C 19 17.914213 19.335787 18.25 19.75 18.25C 20.164213 18.25 20.5 17.914213 20.5 17.5C 20.5 17.085787 20.164213 16.75 19.75 16.75L 19.75 16.75M 27.25 16.75C 26.835787 16.75 26.5 17.085787 26.5 17.5C 26.5 17.914213 26.835787 18.25 27.25 18.25C 27.664213 18.25 28 17.914213 28 17.5C 28 17.085787 27.664213 16.75 27.25 16.75L 27.25 16.75M 34.75 16.75C 34.335785 16.75 34 17.085787 34 17.5C 34 17.914213 34.335785 18.25 34.75 18.25C 35.164215 18.25 35.5 17.914213 35.5 17.5C 35.5 17.085787 35.164215 16.75 34.75 16.75L 34.75 16.75M 28 56.5L 17.5 56.5C 14.186292 56.5 11.5 53.813709 11.5 50.5L 11.5 17.5C 11.5 14.186292 14.186292 11.5 17.5 11.5L 65.5 11.5C 68.813713 11.5 71.5 14.186292 71.5 17.5L 71.5 29.5M 62.199997 80.5L 56.800003 80.5M 65.5 74.5L 53.5 74.5M 59.5 35.5L 59.5 40M 38.5 56.5L 43 56.5M 80.5 56.5L 76 56.5M 42.181 42.181L 46 46M 76.819 42.181L 73 46M 70 56.5C 70 50.701012 65.298988 46.000004 59.5 46.000004C 53.701012 46.000004 49.000004 50.701012 49.000004 56.500004C 48.657242 60.124733 50.401649 63.629822 53.499996 65.542L 53.5 67C 53.5 67.82843 54.171574 68.5 55 68.5L 64 68.5C 64.82843 68.5 65.5 67.82843 65.5 67L 65.5 65.5C 68.594788 63.604752 70.340683 60.11298 69.999992 56.499996Z"></path></g></g></g><g id="g-root-tx_crafttai_vbptyr13gnvnz-stroke" data-item-order="0" transform="translate(272, 237)"></g><g id="g-root-ic_arch_vagpgz13gnthr-stroke" data-item-order="0" transform="translate(110, 206)"><g id="ic_arch_vagpgz13gnthr-stroke" fill="none" stroke-linecap="round" stroke-linejoin="round" stroke-miterlimit="4" stroke="#2c2c2c" stroke-width="2"><g><path d="M 34.299969 43C 28.59997 53.5 36.100029 64 45.699997 64C 53.199997 64 59.199997 58 59.199997 50.5C 59.199997 43 53.199997 37 45.699997 37L 44.5429 37M 10 10M 49 32.199699L 44.5 36.999733L 47.5 42.999699M 46 24.52273C 49.389099 24.52273 52.1362 21.775391 52.1362 18.386351C 52.1362 14.99734 49.389099 12.25 46 12.25C 42.610901 12.25 39.86359 14.99734 39.86359 18.386351C 39.86359 21.775391 42.610901 24.52273 46 24.52273ZM 18.386351 47.227001C 21.775391 47.227001 24.52273 44.479599 24.52273 41.090797C 24.52273 37.701698 21.775391 34.954361 18.386351 34.954361C 14.99734 34.954361 12.25 37.701698 12.25 41.090797C 12.25 44.479599 14.99734 47.227001 18.386351 47.227001ZM 73.6138 47.227001C 77.002602 47.227001 79.75 44.479599 79.75 41.090797C 79.75 37.701698 77.002602 34.954361 73.6138 34.954361C 70.224701 34.954361 67.477295 37.701698 67.477295 41.090797C 67.477295 44.479599 70.224701 47.227001 73.6138 47.227001ZM 26.056841 79.75C 29.44585 79.75 32.193192 77.002602 32.193192 73.613503C 32.193192 70.224403 29.44585 67.477295 26.056841 67.477295C 22.667801 67.477295 19.92046 70.224403 19.92046 73.613503C 19.92046 77.002602 22.667801 79.75 26.056841 79.75ZM 65.9431 79.75C 69.332199 79.75 72.079597 77.002602 72.079597 73.613503C 72.079597 70.224403 69.332199 67.477295 65.9431 67.477295C 62.554302 67.477295 59.8069 70.224403 59.8069 73.613503C 59.8069 77.002602 62.554302 79.75 65.9431 79.75ZM 10 10M 23.1847 37.25782L 41.146 22.117929M 10 10M 68.710899 37.414177L 50.865402 22.117929M 10 10M 19.58629 47.1133L 24.566441 67.656097M 10 10M 72.121597 47.053299L 67.141296 67.597595M 32.19313 73.6138L 59.8069 73.6138"></path></g></g></g><g id="g-root-tx_1_8nw313gp7uw-stroke" data-item-order="0" transform="translate(332, 152.9959716796875)"></g><g id="g-root-tx_4_1lw4ycz13gpatn-stroke" data-item-order="0" transform="translate(116, 350.99609375)"></g><g id="g-root-tx_2_1q6ynsj13gpamj-stroke" data-item-order="0" transform="translate(548, 356.99609375)"></g><g id="g-root-tx_maintain_dg2hv713gp8un-stroke" data-item-order="0" transform="translate(80, 399)"></g><g id="g-root-tx_optimize_18efp4j13gpatl-stroke" data-item-order="0" transform="translate(500, 405)"></g><g id="g-root-tx_ensureon_1qapib713gp8n4-stroke" data-item-order="0" transform="translate(74, 459)"></g><g id="g-root-tx_enhances_hs55gz13gpatm-stroke" data-item-order="0" transform="translate(482, 465)"></g><g id="g-root-tx_bookones_v302cz136twcm-stroke" data-item-order="0" transform="translate(206, 38)"></g><g id="g-root-tx_streamli_4j6jg313gp891-stroke" data-item-order="0" transform="translate(278, 675)"></g><g id="g-root-tx_3_142d1ir13gp8um-stroke" data-item-order="0" transform="translate(332, 566.99609375)"></g><g id="g-root-ic_api_zs5q0j13g9s78-stroke" data-item-order="0" transform="translate(110, 590)"><g id="ic_api_zs5q0j13g9s78-stroke" fill="none" stroke-linecap="round" stroke-linejoin="round" stroke-miterlimit="4" stroke="#2c2c2c" stroke-width="2"><g><path d="M 77.263 80.5L 77.263 63.568001M 74.026001 63.568001L 80.5 63.568001M 74.026001 80.5L 80.5 80.5M 56.223999 80.5L 56.223999 73.276001M 56.223999 73.276001L 61.081001 73.276001C 63.761791 73.276001 65.934998 71.102791 65.934998 68.422005C 65.934998 65.741211 63.761791 63.568001 61.081001 63.568001L 56.223999 63.568001ZM 33.568001 80.5L 35.395 67.567001C 35.737217 65.262703 37.715427 63.55658 40.045002 63.55658C 42.374573 63.55658 44.352783 65.262703 44.695 67.567001L 46.521999 80.5M 34.420002 74.085999L 45.667 74.085999M 67.75 59.263C 69.128799 56.48571 70.137398 53.539589 70.75 50.5L 77.5 50.5C 79.156853 50.5 80.5 49.156857 80.5 47.5L 80.5 44.5C 80.5 42.843143 79.156853 41.5 77.5 41.5L 70.759003 41.5C 70.147354 38.45919 69.138718 35.511955 67.759003 32.734001L 72.516998 27.969999C 73.688141 26.7985 73.688141 24.8995 72.516998 23.728001L 68.272003 19.483C 67.100502 18.311853 65.2015 18.311853 64.029999 19.483L 59.260002 24.25C 56.484356 22.869781 53.539036 21.861111 50.5 21.25L 50.5 14.5C 50.5 12.843145 49.156857 11.5 47.5 11.5L 44.5 11.5C 42.843143 11.5 41.5 12.843145 41.5 14.5L 41.5 21.243999C 38.460007 21.855127 35.513699 22.863792 32.737 24.243999L 27.966999 19.483C 26.795502 18.311853 24.8965 18.311853 23.724998 19.483L 19.48 23.728001C 18.308853 24.8995 18.308853 26.7985 19.48 27.969999L 24.25 32.737C 22.871202 35.514286 21.862602 38.460411 21.25 41.5L 14.5 41.5C 12.843145 41.5 11.5 42.843143 11.5 44.5L 11.5 47.5C 11.5 49.156857 12.843145 50.5 14.5 50.5L 21.238001 50.5C 21.850603 53.539589 22.859203 56.48571 24.237999 59.263L 19.468 64.032997C 18.296854 65.204498 18.296854 67.1035 19.468 68.274994L 23.713001 72.516998C 24.884499 73.688141 26.783501 73.688141 27.955 72.516998M 38.344002 57.120998C 33.664131 53.899319 31.50222 48.092339 32.935898 42.594616C 34.369576 37.096893 39.091969 33.085175 44.749153 32.559155C 50.406334 32.033134 55.787415 35.1054 58.210144 40.244545C 60.632862 45.383694 59.578655 51.489716 55.572998 55.519001"></path></g></g></g><g id="g-root-ic_1_zknxtf13gqo0a-stroke" data-item-order="0" transform="translate(518, 590)"><g id="ic_1_zknxtf13gqo0a-stroke" fill="none" stroke-linecap="round" stroke-linejoin="round" stroke-miterlimit="4" stroke="#2c2c2c" stroke-width="2"><g><path d="M 21.718 68.5L 17.5 68.5C 14.186292 68.5 11.5 65.813713 11.5 62.5L 11.5 17.5C 11.5 14.186292 14.186292 11.5 17.5 11.5L 74.5 11.5C 77.813713 11.5 80.5 14.186292 80.5 17.5L 80.5 62.5C 80.5 65.813713 77.813713 68.5 74.5 68.5L 69.964005 68.5M 11.5 26.5L 80.5 26.5M 22 18.25C 22.414213 18.25 22.75 18.585787 22.75 19C 22.75 19.414213 22.414213 19.75 22 19.75C 21.585787 19.75 21.25 19.414213 21.25 19C 21.25 18.585787 21.585787 18.25 22 18.25M 31 18.25C 31.414213 18.25 31.75 18.585787 31.75 19C 31.75 19.414213 31.414213 19.75 31 19.75C 30.585787 19.75 30.25 19.414213 30.25 19C 30.25 18.585787 30.585787 18.25 31 18.25M 40 18.25C 40.414215 18.25 40.75 18.585787 40.75 19C 40.75 19.414213 40.414215 19.75 40 19.75C 39.585785 19.75 39.25 19.414213 39.25 19C 39.25 18.585787 39.585785 18.25 40 18.25M 28 62.5C 28.000002 72.441132 36.058876 80.5 46 80.5C 55.941128 80.5 64 72.441132 64 62.5C 64 52.558876 55.941128 44.500004 46 44.500004C 36.058876 44.500004 28.000002 52.558876 28.000002 62.5ZM 46 44.5L 46 35.5M 41.5 35.5L 50.5 35.5M 31 44.5L 34.861 48.361M 61 44.5L 57.139 48.361M 47.59 60.909996L 52.362999 56.137001M 45.469002 61.969002C 45.762089 61.676651 46.236618 61.677048 46.529213 61.969894C 46.821808 62.262733 46.821808 62.737267 46.529213 63.030106C 46.236618 63.322952 45.762089 63.323349 45.469002 63.030998C 45.178493 62.736603 45.178493 62.263397 45.469002 61.969002"></path></g></g></g><g id="g-root-tx_implemen_18gb4dv13gp9tw-stroke" data-item-order="0" transform="translate(284, 615)"></g></g></g><path id="w13z9a3s13gjlz4" d="M65.283 12.757a.35.35 0 0 0 .584.157l5.203-5.141-6.183 3.523.396 1.461zm-2.216-11.7a.35.35 0 0 0-.522.305v3.111l3.276-1.868-2.754-1.548zm3.728 2.105l-4.25 2.421v2.445l6.391-3.644-2.141-1.222zm4.708 3.303a.35.35 0 0 0 0-.609l-1.592-.9-7.365 4.199v1.782a.35.35 0 0 0 .523.305l8.435-4.777z M44.542 2.513c0-.433.355-.783.792-.783s.792.35.792.783-.355.783-.792.783-.792-.35-.792-.783zm59.171 0c0-.433.355-.783.792-.783s.792.35.792.783-.355.783-.792.783-.792-.35-.792-.783zm-85.951 7.636h-1.27v-.487c-.276.201-.864.609-1.881.609-1.202 0-2.274-.794-2.137-2.078.118-1.106 1.153-1.584 1.848-1.727l2.17-.345c0-.539-.29-.956-1.064-1.006s-1.21.305-1.571 1.017l-1.124-.605c1.218-2.631 5.029-1.764 5.029.414v4.207zm-1.27-2.86c.006.396-.062 1.112-.819 1.59-.587.37-1.841.299-1.903-.395-.049-.555.461-.791.906-.898l1.816-.297zm72.662 2.86h-1.27v-.487c-.276.201-.864.609-1.881.609-1.202 0-2.274-.794-2.137-2.078.118-1.106 1.153-1.584 1.848-1.727l2.17-.345c0-.539-.29-.956-1.064-1.006s-1.21.305-1.571 1.017l-1.124-.605c1.218-2.631 5.029-1.764 5.029.414v4.207zm-1.27-2.86c.006.396-.062 1.112-.82 1.59-.587.37-1.841.299-1.903-.395-.049-.555.461-.791.906-.898l1.816-.297zM99.096 10.149H97.85v-8.45h1.246v4.895l2.68-2.559h1.738l-2.633 2.535 2.715 3.578h-1.556l-2.077-2.707-.867.844v1.863zm6.053-6.114h-1.255v6.113h1.255V4.035zm-59.2 0h-1.255v6.113h1.255V4.035zm5.584 6.113V1.697h1.255v2.695c.361-.346 1-.485 1.47-.485 1.452 0 2.477 1.082 2.457 2.448v3.792h-1.27v-3.68c0-.408-.214-1.339-1.315-1.339-.968 0-1.342.756-1.342 1.339v3.681h-1.255zm-4.76-4.894V4.039h.621a.45.45 0 0 0 .45-.45v-.855h1.251v1.305h1.309v1.215h-1.309v3.109c0 .293.105.664.648.664.365 0 .531-.035.736-.07v1.137s-.361.113-.857.113c-1.398 0-1.777-1.051-1.777-1.788V5.254h-1.071zM36.528 4.039h-1.394l2.191 6.106h1.125l1.234-3.918 1.238 3.918h1.129l2.188-6.106h-1.383l-1.359 3.93-1.256-3.93h-1.124l-1.242 3.957-1.348-3.957zM26.212 7.141c-.02 1.566 1.187 3.129 3.223 3.129 1.566 0 2.383-.918 2.734-1.719L31.172 8c-.315.399-.801 1.094-1.738 1.094-1.145 0-1.825-.781-1.891-1.52h4.625c.074-.284.148-.995-.03-1.559-.336-1.064-1.221-2.102-2.839-2.102s-3.088 1.152-3.088 3.227zm1.363-.75h3.348c-.055-.43-.566-1.301-1.623-1.301a1.79 1.79 0 0 0-1.725 1.301zm-8.758.75c.038 1.758 1.277 3.133 3.145 3.133 1.074 0 1.723-.477 1.961-.672v.547h1.242V1.703h-1.258v2.888c-.414-.36-1.062-.68-1.93-.68-1.91 0-3.198 1.473-3.16 3.23zm1.309-.08c0 1.119.723 1.978 1.836 1.978a1.88 1.88 0 0 0 1.94-1.904c0-1.371-1.011-1.99-1.972-1.99s-1.805.798-1.805 1.916zm76.683-.028C96.771 5.275 95.532 3.9 93.664 3.9c-1.074 0-1.723.477-1.961.672v-.547h-1.242v8.22h1.258V9.583c.414.36 1.063.68 1.93.68 1.91 0 3.198-1.473 3.16-3.23zm-1.309.08c0-1.119-.723-1.978-1.836-1.978a1.88 1.88 0 0 0-1.94 1.904c0 1.371 1.011 1.99 1.972 1.99S95.5 8.231 95.5 7.113zM106.441 10.173V4.036h1.254v.382c.361-.346 1-.485 1.47-.485 1.452 0 2.477 1.082 2.457 2.448v3.792h-1.27V6.492c0-.408-.214-1.339-1.315-1.339-.969 0-1.342.756-1.342 1.339v3.681h-1.254zm-30.383-.021V1.824h1.084l4.215 5.777V1.824h1.32v8.328h-1.094l-4.207-5.796v5.796h-1.319zM5.24 10.149H4V2.377h1.014l2.664 3.597 2.654-3.592h1.03v7.766h-1.256V4.762L7.678 8.068 5.24 4.742v5.407z" transform="translate(584, 794)" fill="#ababab88" stroke="none"></path></svg>