<svg width="42" height="38" viewBox="0 0 42 38" fill="none" xmlns="http://www.w3.org/2000/svg">
<path d="M11.2215 29.6149C9.84054 30.7882 8.3972 31.3146 6.89154 31.1939C5.38554 31.0733 4.08137 30.5469 2.97904 29.6149C1.87637 28.6832 1.14004 27.4831 0.770037 26.0144C0.400037 24.5461 0.685037 23.0301 1.62504 21.4664L5.66504 14.7119C4.77304 13.9879 4.06437 13.0928 3.53904 12.0264C3.0137 10.9601 2.75104 9.81575 2.75104 8.59342C2.75104 6.39908 3.5267 4.52475 5.07804 2.97041C6.62937 1.41608 8.50004 0.638916 10.69 0.638916C12.8714 0.638916 14.7399 1.41675 16.2955 2.97242C17.8515 4.52842 18.6295 6.39891 18.6295 8.58391C18.6295 10.7692 17.8515 12.6397 16.2955 14.1954C14.7399 15.7514 12.8714 16.5294 10.69 16.5294C10.3427 16.5294 9.99537 16.5064 9.64804 16.4604C9.30037 16.4144 8.9757 16.3414 8.67404 16.2414L4.52154 23.2194C4.07887 23.9541 3.9397 24.6702 4.10404 25.3679C4.26837 26.0656 4.61487 26.6319 5.14354 27.0669C5.6722 27.5019 6.28987 27.7443 6.99654 27.7939C7.7032 27.8436 8.37387 27.5971 9.00854 27.0544L30.79 8.34641C32.1794 7.16541 33.6352 6.62492 35.1575 6.72492C36.6802 6.82492 37.9907 7.34492 39.089 8.28492C40.1877 9.22458 40.918 10.4379 41.28 11.9249C41.642 13.4116 41.357 14.9311 40.425 16.4834L36.4465 23.2499C37.3389 23.9659 38.0477 24.8561 38.573 25.9204C39.0984 26.9851 39.361 28.1296 39.361 29.3539C39.361 31.5456 38.578 33.4178 37.012 34.9704C35.446 36.5228 33.5632 37.2989 31.3635 37.2989C29.1639 37.2989 27.2985 36.5233 25.7675 34.9719C24.2362 33.4206 23.4705 31.5499 23.4705 29.3599C23.4705 27.1786 24.2362 25.3101 25.7675 23.7544C27.2985 22.1984 29.1645 21.4204 31.3655 21.4204C31.7005 21.4204 32.032 21.4351 32.36 21.4644C32.688 21.4938 33.014 21.5544 33.338 21.6464L37.49 14.7304C37.933 14.0034 38.0682 13.2896 37.8955 12.5889C37.7229 11.8879 37.3722 11.3217 36.8435 10.8904C36.3145 10.4591 35.697 10.2184 34.991 10.1684C34.2847 10.1184 33.6222 10.3607 33.0035 10.8954L11.2215 29.6149ZM10.698 13.1109C11.945 13.1109 13.0109 12.6677 13.8955 11.7814C14.7805 10.8954 15.223 9.82708 15.223 8.57642C15.223 7.32542 14.7779 6.25958 13.8875 5.37892C12.9975 4.49792 11.9272 4.05742 10.6765 4.05742C9.42554 4.05742 8.3597 4.50041 7.47904 5.38641C6.59804 6.27208 6.15754 7.34258 6.15754 8.59792C6.15754 9.84492 6.60054 10.9087 7.48654 11.7894C8.3722 12.6704 9.4427 13.1109 10.698 13.1109ZM31.3725 33.8924C32.6332 33.8924 33.71 33.4494 34.603 32.5634C35.496 31.6778 35.9425 30.6073 35.9425 29.3519C35.9425 28.1049 35.496 27.0391 34.603 26.1544C33.7104 25.2694 32.6315 24.8269 31.3665 24.8269C30.1099 24.8269 29.0495 25.2721 28.1855 26.1624C27.3212 27.0524 26.889 28.1227 26.889 29.3734C26.889 30.6244 27.3212 31.6902 28.1855 32.5709C29.0495 33.4519 30.1119 33.8924 31.3725 33.8924Z" fill="#030000"/>
</svg>
