<svg width="518" height="365" viewBox="0 0 518 365" fill="none" xmlns="http://www.w3.org/2000/svg">
<path fill-rule="evenodd" clip-rule="evenodd" d="M254.372 173.429C284.678 177.175 292.952 126.026 318.109 108.717C375.674 69.1077 434.811 -23.314 498.487 5.45976C550.969 29.1753 481.278 119.251 457.912 171.89C442.192 207.304 374.854 223.742 384.994 261.137C397.829 308.467 498.678 295.803 504.712 344.469C509.327 381.688 420.497 351.823 400.144 383.323C377.494 418.379 440.639 513.877 399.397 507.466C335.303 497.501 319.081 407.038 271.202 363.277C262.959 355.743 249.049 362.464 238.139 360.077C227.404 357.728 217.387 344.968 207.284 349.291C137.8 379.021 70.6145 503.086 10.2798 457.571C-44.9417 415.914 139.978 372.614 146.978 303.797C151.287 261.43 30.6894 295.139 31.1339 252.555C31.5589 211.838 141.06 260.349 147.85 220.2C157.84 161.132 46.7454 121.071 63.1167 63.4443C74.5521 23.1921 147.949 71.3072 184.224 92.1675C215.51 110.159 218.554 169.001 254.372 173.429Z" fill="#FFD700"/>
</svg>
