<svg width="651" height="550" viewBox="0 0 651 550" fill="none" xmlns="http://www.w3.org/2000/svg">
<path fill-rule="evenodd" clip-rule="evenodd" d="M361.197 42.0251C394.082 31.7235 444.163 -21.5881 458.488 9.75486C483.736 65.0002 376.271 155.682 427.823 187.807C490.979 227.162 572.018 90.6015 639.287 122.42C685.781 144.411 573.161 200.012 546.111 243.757C534.238 262.959 537.667 288.863 524.868 307.46C512.765 325.047 491.658 333.424 475.114 346.918C461.535 357.995 443.063 364.837 435.278 380.537C418.248 414.881 427.309 459.723 404.063 490.205C381.115 520.297 345.151 544.133 307.513 548.075C271.491 551.847 212.348 546.634 206.394 510.907C195.726 446.891 251.472 390.892 271.004 329.002C275.548 314.606 291.833 290.209 277.81 284.618C195.829 251.929 91.1567 283.151 21.167 229.384C-13.7876 202.531 -3.19213 118.536 36.4002 99.1624C97.2741 69.3746 169.334 133.505 236.442 124.042C262.112 120.422 263.302 78.3537 284.964 64.1125C307.261 49.4543 335.734 50.0016 361.197 42.0251Z" fill="#675D7E"/>
</svg>
