<svg width="41" height="40" viewBox="0 0 41 40" fill="none" xmlns="http://www.w3.org/2000/svg">
<path d="M3.77418 39.299C2.85418 39.299 2.05651 38.9612 1.38118 38.2855C0.705509 37.6102 0.367676 36.8125 0.367676 35.8925V12.251C0.367676 11.3277 0.705509 10.5272 1.38118 9.84952C2.05651 9.17152 2.85418 8.83252 3.77418 8.83252H12.3917V3.83253C12.3917 2.92086 12.7295 2.12519 13.4052 1.44552C14.0805 0.765856 14.8782 0.426025 15.7982 0.426025H25.5352C26.4552 0.426025 27.2528 0.765856 27.9282 1.44552C28.6038 2.12519 28.9417 2.92086 28.9417 3.83253V8.83252H37.5592C38.4825 8.83252 39.283 9.17152 39.9607 9.84952C40.6387 10.5272 40.9777 11.3277 40.9777 12.251V35.8925C40.9777 36.8125 40.6387 37.6102 39.9607 38.2855C39.283 38.9612 38.4825 39.299 37.5592 39.299H3.77418ZM15.7982 8.83252H25.5352V3.83253H15.7982V8.83252ZM37.5592 26.3425H25.2167V27.648C25.2167 28.1314 25.0528 28.5345 24.7252 28.8575C24.3972 29.1809 23.9925 29.3425 23.5112 29.3425H17.9082C17.4268 29.3425 17.0247 29.1789 16.7017 28.8515C16.3783 28.5242 16.2167 28.12 16.2167 27.639V26.3425H3.77418V35.8925H37.5592V26.3425ZM19.2167 26.3425H22.2167V23.3425H19.2167V26.3425ZM3.77418 23.3425H16.2167V22.037C16.2167 21.5537 16.3805 21.1504 16.7082 20.827C17.0362 20.504 17.4408 20.3425 17.9222 20.3425H23.5252C24.0065 20.3425 24.4087 20.5062 24.7317 20.8335C25.055 21.1609 25.2167 21.5649 25.2167 22.0455V23.3425H37.5592V12.251H3.77418V23.3425Z" fill="#030000"/>
</svg>
