<svg width="42" height="42" viewBox="0 0 42 42" fill="none" xmlns="http://www.w3.org/2000/svg">
<path d="M13.6917 29.2671L23.9232 26.1821C24.4882 26.0081 24.9727 25.7191 25.3767 25.3151C25.7807 24.9111 26.0697 24.4266 26.2437 23.8616L29.3287 13.6301C29.4363 13.3101 29.368 13.0248 29.1237 12.7741C28.879 12.5238 28.5907 12.4525 28.2587 12.5601L18.0272 15.6451C17.4622 15.8191 16.9777 16.1081 16.5737 16.5121C16.1697 16.9161 15.8807 17.4006 15.7067 17.9656L12.6217 28.1971C12.514 28.5171 12.5823 28.8025 12.8267 29.0531C13.0713 29.3035 13.3597 29.3748 13.6917 29.2671ZM20.9857 22.7091C20.4843 22.7091 20.058 22.5286 19.7067 22.1676C19.3553 21.8063 19.1797 21.3751 19.1797 20.8741C19.1797 20.3728 19.3602 19.9465 19.7212 19.5951C20.0825 19.2438 20.5137 19.0681 21.0147 19.0681C21.516 19.0681 21.9423 19.2486 22.2937 19.6096C22.645 19.971 22.8207 20.4021 22.8207 20.9031C22.8207 21.4045 22.6402 21.8308 22.2792 22.1821C21.9178 22.5335 21.4867 22.7091 20.9857 22.7091ZM21.0152 41.1876C18.2085 41.1876 15.5745 40.6563 13.1132 39.5936C10.6518 38.531 8.49917 37.0776 6.65517 35.2336C4.81117 33.3896 3.35784 31.2363 2.29517 28.7736C1.23251 26.311 0.701172 23.6748 0.701172 20.8651C0.701172 18.0558 1.23251 15.4191 2.29517 12.9551C3.35784 10.4915 4.81051 8.3458 6.65317 6.51814C8.49584 4.69014 10.6488 3.24314 13.1122 2.17714C15.5755 1.1108 18.2123 0.577637 21.0227 0.577637C23.8327 0.577637 26.4702 1.11047 28.9352 2.17614C31.3998 3.2418 33.5457 4.68797 35.3727 6.51464C37.2 8.3413 38.6465 10.4893 39.7122 12.9586C40.7782 15.428 41.3112 18.0668 41.3112 20.8751C41.3112 23.6831 40.778 26.3176 39.7117 28.7786C38.6457 31.24 37.1987 33.3891 35.3707 35.2261C33.543 37.0628 31.3952 38.5156 28.9272 39.5846C26.4592 40.6533 23.8218 41.1876 21.0152 41.1876ZM21.0222 37.7811C25.7248 37.7811 29.7122 36.1376 32.9842 32.8506C36.2565 29.5636 37.8927 25.569 37.8927 20.8666C37.8927 16.164 36.2573 12.1766 32.9867 8.90463C29.716 5.6323 25.7293 3.99614 21.0267 3.99614C16.324 3.99614 12.3285 5.63147 9.04017 8.90214C5.75184 12.1728 4.10767 16.1595 4.10767 20.8621C4.10767 25.5648 5.75117 29.5603 9.03817 32.8486C12.3252 36.137 16.3198 37.7811 21.0222 37.7811Z" fill="#030000"/>
</svg>
