<svg width="38" height="39" viewBox="0 0 38 39" fill="none" xmlns="http://www.w3.org/2000/svg">
<path d="M5.6618 38.0921C4.93947 38.0921 4.3333 37.8471 3.8433 37.3571C3.3533 36.8671 3.1083 36.261 3.1083 35.5386C3.1083 34.8163 3.3533 34.2101 3.8433 33.7201C4.3333 33.2301 4.93947 32.9851 5.6618 32.9851H9.6618L4.5173 15.4236C3.34697 14.9313 2.42797 14.2283 1.7603 13.3146C1.0923 12.401 0.758301 11.1923 0.758301 9.68863C0.758301 8.0503 1.3593 6.62813 2.5613 5.42213C3.76297 4.21647 5.18297 3.61363 6.8213 3.61363C8.35997 3.61363 9.64047 4.0273 10.6628 4.85463C11.6851 5.68163 12.375 6.79297 12.7323 8.18863H19.5898V5.23863C19.5898 4.79863 19.7518 4.4168 20.0758 4.09314C20.3998 3.76914 20.7816 3.60713 21.2213 3.60713C21.5803 3.60713 21.8848 3.7428 22.1348 4.01413C22.3848 4.28547 22.5136 4.60047 22.5213 4.95913L26.1878 1.44314C26.4785 1.16047 26.8441 0.973467 27.2848 0.882134C27.7251 0.7908 28.174 0.849134 28.6313 1.05713L36.5313 4.85713C36.8713 5.0398 37.1055 5.30097 37.2338 5.64063C37.3625 5.98063 37.3316 6.33713 37.1413 6.71013C36.9586 7.06747 36.691 7.28747 36.3383 7.37013C35.986 7.4528 35.6438 7.3988 35.3118 7.20813L27.6573 3.49413L22.8648 8.33663V10.8171L27.6573 15.8711L35.3118 12.1311C35.6848 11.9485 36.0353 11.9008 36.3633 11.9881C36.6913 12.0755 36.9506 12.2978 37.1413 12.6551C37.3316 13.0281 37.3625 13.4013 37.2338 13.7746C37.1055 14.1476 36.8546 14.4255 36.4813 14.6081L28.8673 18.1961C28.3606 18.4535 27.8768 18.5718 27.4158 18.5511C26.9545 18.5305 26.5451 18.3415 26.1878 17.9841L22.5213 14.4681C22.5136 14.9348 22.3868 15.2768 22.1408 15.4941C21.8945 15.7115 21.588 15.8201 21.2213 15.8201C20.7816 15.8201 20.3998 15.6581 20.0758 15.3341C19.7518 15.0105 19.5898 14.6286 19.5898 14.1886V11.1886H12.6323C12.6163 11.6286 12.4841 12.0928 12.2358 12.5811C11.9871 13.0695 11.7008 13.447 11.3768 13.7136L21.3638 32.9851H27.0213C27.744 32.9851 28.3501 33.2301 28.8398 33.7201C29.3298 34.2101 29.5748 34.8163 29.5748 35.5386C29.5748 36.261 29.3298 36.8671 28.8398 37.3571C28.3501 37.8471 27.744 38.0921 27.0213 38.0921H5.6618ZM6.8213 12.4886C7.6213 12.4886 8.28797 12.222 8.8213 11.6886C9.35463 11.1553 9.6213 10.4886 9.6213 9.68863C9.6213 8.88863 9.35463 8.22197 8.8213 7.68863C8.28797 7.1553 7.6213 6.88863 6.8213 6.88863C6.0213 6.88863 5.35463 7.1553 4.8213 7.68863C4.28797 8.22197 4.0213 8.88863 4.0213 9.68863C4.0213 10.4886 4.28797 11.1553 4.8213 11.6886C5.35463 12.222 6.0213 12.4886 6.8213 12.4886ZM12.9738 32.9851H18.0138L8.8033 15.0656C8.6873 15.1403 8.51063 15.213 8.2733 15.2836C8.03597 15.3543 7.85063 15.4063 7.7173 15.4396L12.9738 32.9851Z" fill="#030000"/>
</svg>
