<svg width="42" height="40" viewBox="0 0 42 40" fill="none" xmlns="http://www.w3.org/2000/svg">
<path d="M7.44265 27.5572L12.7687 2.04073C12.8433 1.65039 13.0387 1.32223 13.3547 1.05623C13.6707 0.790226 14.0278 0.657227 14.4262 0.657227H15.1742C15.5648 0.657227 15.92 0.788226 16.2397 1.05023C16.5597 1.31223 16.757 1.63839 16.8317 2.02873L23.2002 31.6552L27.1307 14.3787C27.1973 13.9884 27.399 13.6622 27.7357 13.4002C28.072 13.1382 28.4355 13.0072 28.8262 13.0072H29.6742C30.0648 13.0072 30.42 13.1299 30.7397 13.3752C31.0597 13.6206 31.2737 13.9384 31.3817 14.3287L34.6077 27.5572H39.5502C39.9902 27.5572 40.3637 27.7109 40.6707 28.0182C40.978 28.3252 41.1317 28.6987 41.1317 29.1387C41.1317 29.5787 40.978 29.9606 40.6707 30.2842C40.3637 30.6082 39.9902 30.7702 39.5502 30.7702H33.4102C32.9955 30.7702 32.635 30.6479 32.3287 30.4032C32.022 30.1589 31.8313 29.8461 31.7567 29.4647L29.3002 19.6507L25.0817 37.7867C25.007 38.1771 24.8263 38.4802 24.5397 38.6962C24.2533 38.9122 23.9148 39.0202 23.5242 39.0202H22.7762C22.3855 39.0202 22.047 38.9039 21.7607 38.6712C21.474 38.4386 21.2973 38.1271 21.2307 37.7367L14.8502 8.23423L10.3937 29.4147C10.319 29.8294 10.1283 30.1589 9.82165 30.4032C9.51532 30.6479 9.15482 30.7702 8.74015 30.7702H2.45015C2.01015 30.7702 1.63665 30.6082 1.32965 30.2842C1.02232 29.9606 0.868652 29.5787 0.868652 29.1387C0.868652 28.6987 1.03065 28.3252 1.35465 28.0182C1.67832 27.7109 2.06015 27.5572 2.50015 27.5572H7.44265Z" fill="#030000"/>
</svg>
