<svg width="16" height="16" viewBox="0 0 16 16" fill="none" xmlns="http://www.w3.org/2000/svg">
<path d="M8 1C7.20887 1 6.43552 1.2346 5.77772 1.67412C5.11992 2.11365 4.60723 2.73836 4.30448 3.46927C4.00173 4.20017 3.92252 5.00444 4.07686 5.78036C4.2312 6.55629 4.61216 7.26902 5.17157 7.82843C5.73098 8.38784 6.44371 8.7688 7.21964 8.92314C7.99556 9.07748 8.79983 8.99827 9.53073 8.69552C10.2616 8.39277 10.8864 7.88008 11.3259 7.22228C11.7654 6.56448 12 5.79113 12 5C11.9987 3.93954 11.5768 2.92289 10.827 2.17303C10.0771 1.42318 9.06046 1.00132 8 1ZM10.955 4.5H9.736C9.71065 3.75799 9.57742 3.02362 9.3405 2.32C9.7617 2.53133 10.1273 2.83876 10.4077 3.21745C10.6882 3.59614 10.8757 4.03549 10.955 4.5ZM8.011 7.9995H8.007C7.817 7.9395 7.3525 7.089 7.2675 5.5H8.7325C8.6475 7.088 8.1855 7.9385 8.011 7.9995ZM7.2675 4.5C7.3525 2.912 7.8145 2.0615 7.989 2.0005H7.993C8.183 2.0605 8.6475 2.911 8.7325 4.5H7.2675ZM6.66 2.32C6.42291 3.0236 6.28951 3.75797 6.264 4.5H5.045C5.12438 4.03544 5.31193 3.59606 5.59247 3.21737C5.87302 2.83867 6.23871 2.53127 6.66 2.32ZM5.045 5.5H6.2635C6.28901 6.24203 6.42241 6.9764 6.6595 7.68C6.2383 7.46867 5.87271 7.16124 5.59226 6.78255C5.3118 6.40386 5.12433 5.96451 5.045 5.5ZM9.34 7.68C9.57709 6.9764 9.71049 6.24203 9.736 5.5H10.955C10.8756 5.96456 10.6881 6.40394 10.4075 6.78263C10.127 7.16133 9.76129 7.46873 9.34 7.68ZM14 15H2C1.73478 15 1.48043 14.8946 1.29289 14.7071C1.10536 14.5196 1 14.2652 1 14V11C1 10.7348 1.10536 10.4804 1.29289 10.2929C1.48043 10.1054 1.73478 10 2 10H14C14.2652 10 14.5196 10.1054 14.7071 10.2929C14.8946 10.4804 15 10.7348 15 11V14C15 14.2652 14.8946 14.5196 14.7071 14.7071C14.5196 14.8946 14.2652 15 14 15ZM2 11V14H14V11H2Z" fill="black"/>
<path d="M3.5 13C3.77614 13 4 12.7761 4 12.5C4 12.2239 3.77614 12 3.5 12C3.22386 12 3 12.2239 3 12.5C3 12.7761 3.22386 13 3.5 13Z" fill="black"/>
</svg>
