<svg width="42" height="20" viewBox="0 0 42 20" fill="none" xmlns="http://www.w3.org/2000/svg">
<path d="M35.7555 15.8258C34.1328 15.8258 32.7663 15.2581 31.656 14.1228C30.5453 12.9878 29.99 11.6091 29.99 9.98677C29.99 8.3641 30.5453 6.98727 31.656 5.85627C32.7663 4.72493 34.1328 4.15927 35.7555 4.15927C37.3445 4.15927 38.7046 4.72493 39.836 5.85627C40.967 6.98727 41.5325 8.3641 41.5325 9.98677C41.5325 11.6091 40.967 12.9878 39.836 14.1228C38.7046 15.2581 37.3445 15.8258 35.7555 15.8258ZM17.827 11.7518H2.18248C1.69348 11.7518 1.27698 11.5819 0.932981 11.2423C0.589314 10.9023 0.41748 10.4838 0.41748 9.98677C0.41748 9.49743 0.589314 9.08093 0.932981 8.73727C1.27698 8.39327 1.69348 8.22127 2.18248 8.22127H17.827L13.512 3.86827C13.172 3.52027 13.002 3.11843 13.002 2.66277C13.002 2.20677 13.168 1.80893 13.5 1.46927C13.8476 1.12127 14.2618 0.947266 14.7425 0.947266C15.2228 0.947266 15.633 1.12127 15.973 1.46927L23.235 8.79327C23.5746 9.14093 23.7445 9.54077 23.7445 9.99277C23.7445 10.4444 23.5746 10.8403 23.235 11.1803L15.923 18.5658C15.575 18.9138 15.1711 19.0878 14.7115 19.0878C14.2515 19.0878 13.8516 18.9138 13.512 18.5658C13.2053 18.2261 13.05 17.8303 13.046 17.3783C13.042 16.9266 13.1933 16.5268 13.5 16.1788L17.827 11.7518Z" fill="#030000"/>
</svg>
